<svg xmlns="http://www.w3.org/2000/svg" xmlns:xlink="http://www.w3.org/1999/xlink" width="500" zoomAndPan="magnify" viewBox="0 0 375 374.999991" height="500" preserveAspectRatio="xMidYMid meet" version="1.0"><defs><clipPath id="4d44eb406d"><path d="M 37.5 37.5 L 337.5 37.5 L 337.5 337.5 L 37.5 337.5 Z M 37.5 37.5 " clip-rule="nonzero"/></clipPath></defs><g clip-path="url(#4d44eb406d)"><path fill="#19bd60" d="M 278.203125 217.148438 L 217.148438 217.148438 L 217.148438 278.203125 L 157.851562 278.203125 L 157.851562 217.148438 L 96.796875 217.148438 L 96.796875 157.851562 L 157.851562 157.851562 L 157.851562 96.796875 L 217.148438 96.796875 L 217.148438 157.851562 L 278.203125 157.851562 L 278.203125 93.859375 L 217.148438 37.5 L 157.851562 96.796875 L 93.859375 96.796875 L 37.5 157.851562 L 96.796875 217.148438 L 96.796875 281.140625 L 157.851562 337.5 L 217.148438 278.203125 L 281.140625 278.203125 L 337.5 217.148438 L 324.585938 204.230469 L 278.203125 157.851562 Z M 278.203125 217.148438 " fill-opacity="1" fill-rule="evenodd"/><path fill="#1f3642" d="M 217.148438 278.203125 L 157.851562 278.203125 L 157.851562 337.5 Z M 278.203125 157.851562 L 278.203125 217.148438 L 337.5 217.148438 Z M 157.851562 96.796875 L 217.148438 96.796875 L 217.148438 37.5 Z M 96.796875 217.148438 L 96.796875 157.851562 L 37.5 157.851562 Z M 96.796875 217.148438 " fill-opacity="1" fill-rule="evenodd"/></g></svg>