<svg xmlns="http://www.w3.org/2000/svg" xmlns:xlink="http://www.w3.org/1999/xlink" width="500" zoomAndPan="magnify" viewBox="0 0 375 374.999991" height="500" preserveAspectRatio="xMidYMid meet" version="1.0"><defs><clipPath id="3d778460a3"><path d="M 47.210938 42.355469 L 337.460938 42.355469 L 337.460938 332.605469 L 47.210938 332.605469 Z M 47.210938 42.355469 " clip-rule="nonzero"/></clipPath></defs><g clip-path="url(#3d778460a3)"><path fill="#19bd60" d="M 280.121094 216.1875 L 221.042969 216.1875 L 221.042969 275.265625 L 163.667969 275.265625 L 163.667969 216.1875 L 104.585938 216.1875 L 104.585938 158.8125 L 163.667969 158.8125 L 163.667969 99.730469 L 221.042969 99.730469 L 221.042969 158.8125 L 280.121094 158.8125 L 280.121094 96.890625 L 221.042969 42.355469 L 163.667969 99.730469 L 101.746094 99.730469 L 47.210938 158.8125 L 104.585938 216.1875 L 104.585938 278.105469 L 163.667969 332.640625 L 221.042969 275.265625 L 282.960938 275.265625 L 337.496094 216.1875 L 325 203.6875 L 280.121094 158.8125 Z M 280.121094 216.1875 " fill-opacity="1" fill-rule="evenodd"/><path fill="#ffffff" d="M 221.042969 275.265625 L 163.667969 275.265625 L 163.667969 332.640625 Z M 280.121094 158.8125 L 280.121094 216.1875 L 337.496094 216.1875 Z M 163.667969 99.730469 L 221.042969 99.730469 L 221.042969 42.355469 Z M 104.585938 216.1875 L 104.585938 158.8125 L 47.210938 158.8125 Z M 104.585938 216.1875 " fill-opacity="1" fill-rule="evenodd"/></g></svg>